<?xml version="1.0" standalone="no"?>
<!DOCTYPE svg PUBLIC "-//W3C//DTD SVG 1.1//EN" "http://www.w3.org/Graphics/SVG/1.1/DTD/svg11.dtd" >
<svg>
<metadata>
Created by FontForge 20110222 at Thu Feb 12 11:43:30 2015
 By deploy user
Copyright (c) 2007 by ALS. All rights reserved.
</metadata>
<defs>
<font id="ALSRubl" horiz-adv-x="500" >
  <font-face 
    font-family="ALS Rubl"
    font-weight="400"
    font-stretch="normal"
    units-per-em="1000"
    panose-1="2 0 5 0 0 0 0 2 0 4"
    ascent="750"
    descent="-250"
    x-height="700"
    bbox="-61 0 859 702"
    underline-thickness="50"
    underline-position="-50"
    unicode-range="U+0020-0073"
  />
<missing-glyph 
 />
    <glyph glyph-name=".notdef" 
 />
    <glyph glyph-name=".null" horiz-adv-x="0" 
 />
    <glyph glyph-name="nonmarkingreturn" 
 />
    <glyph glyph-name="space" unicode=" " 
 />
    <glyph glyph-name="space" unicode="&#xa0;" 
 />
    <glyph glyph-name="e" unicode="e" horiz-adv-x="696" 
d="M91 350h97v251q0 17 -4.5 30.5t-23.5 20.5q-18 7 -36.5 9.5t-32.5 3.5v35h320q98 0 159 -47t61 -125q0 -56 -22 -98t-60 -69q-37 -28 -81.5 -41t-95.5 -13h-78v-49h310v-42h-310v-121q0 -17 5.5 -30t23.5 -20q9 -4 31.5 -7t40.5 -3v-35h-300v35q12 1 34.5 3.5t30.5 6.5
q15 6 21.5 18.5t6.5 31.5v121h-97v42h97v50h-97v42zM481 408q16 23 21.5 48.5t5.5 45.5q0 29 -6.5 58t-22.5 51q-18 23 -46 36t-69 13h-70v-310h50q53 0 86.5 16.5t50.5 41.5z" />
    <glyph glyph-name="f" unicode="f" horiz-adv-x="698" 
d="M52 349h97l59 254q0 4 1 9.5t1 10.5q0 10 -4 18.5t-15 13.5q-16 6 -33.5 9t-32.5 3l8 33h311q85 0 138 -37.5t53 -103.5q0 -59 -26.5 -106t-67.5 -78q-44 -34 -97.5 -50.5t-112.5 -16.5h-86l-12 -52h314l-9 -41h-315l-28 -122q-1 -5 -1.5 -10t-0.5 -8q0 -11 4 -19.5
t15 -13.5q8 -3 30.5 -6t39.5 -3l-7 -33h-300l7 33q13 0 35.5 2.5t32.5 6.5q18 7 27 20t13 31l28 122h-97l10 41h96l13 52h-98zM477 426q20 29 28.5 61.5t8.5 61.5q0 22 -6 42.5t-21 36.5t-38 25t-58 9h-64l-73 -313h56q58 0 99.5 19.5t67.5 57.5z" />
    <glyph glyph-name="g" unicode="g" horiz-adv-x="762" 
d="M69 349h103v245q0 18 -6 30.5t-26 20.5q-14 6 -37 10.5t-34 6.5v38h387q136 0 202.5 -43t66.5 -132q0 -58 -24 -101t-67 -70q-44 -28 -101 -40.5t-128 -12.5h-59v-53h352v-47h-352v-96q0 -18 7 -31t25 -21q10 -4 33 -8.5t38 -5.5v-39h-380v39q14 1 38 3.5t33 6.5
q19 8 25.5 19.5t6.5 31.5v101h-103v47h103v53h-103v48zM534 501q0 78 -32 116.5t-115 38.5h-41v-307h21q82 0 124.5 37t42.5 115z" />
    <glyph glyph-name="h" unicode="h" horiz-adv-x="642" 
d="M24 346h103l56 239q3 11 4 18t1 10q0 21 -21 32.5t-69 18.5l9 36h378q123 0 183 -36t60 -111q0 -61 -28 -109t-80 -81q-52 -31 -116 -46t-141 -15h-70l-11 -47h359l-10 -44h-359l-23 -99q-2 -9 -3.5 -16.5t-1.5 -11.5q0 -22 18.5 -32.5t70.5 -15.5l-8 -36h-380l8 36
q13 1 37.5 4t36.5 7q19 6 29 19t14 30l26 115h-103l10 44h104l10 46h-103zM532 551q0 54 -28.5 80.5t-93.5 26.5h-36l-72 -312h32q54 0 92 15.5t62 44.5q23 27 33.5 64t10.5 81z" />
    <glyph glyph-name="i" unicode="i" horiz-adv-x="702" 
d="M151 341h71v359h176q62 0 105.5 -10.5t77.5 -33.5q39 -26 61 -67.5t22 -99.5q0 -45 -16.5 -86t-44.5 -70q-36 -35 -85 -53.5t-124 -18.5h-79v-61h315v-80h-315v-120h-93v120h-71v80h71v62h-71v79zM567 487q0 36 -12.5 62.5t-37.5 43.5q-23 15 -52 21t-73 6h-77v-280h64
q56 0 90.5 9.5t58.5 32.5q20 21 29.5 46t9.5 59z" />
    <glyph glyph-name="j" unicode="j" horiz-adv-x="811" 
d="M154 361h72v339h272q61 0 104.5 -11t79.5 -35q40 -26 61.5 -70t21.5 -105q0 -49 -15.5 -93t-44.5 -74q-18 -18 -39.5 -33.5t-47.5 -26.5t-56 -17t-68 -6h-92v-48h333v-132h-333v-49h-176v49h-72v132h72v48h-72v132zM584 475q0 30 -14 51.5t-34 28.5q-25 11 -47.5 13
t-61.5 2h-25v-210h12q25 0 47 0.5t39 3.5q14 2 29.5 9t24.5 15q18 17 24 36t6 51z" />
    <glyph glyph-name="k" unicode="k" horiz-adv-x="640" 
d="M34 347h100v229q0 67 -14 83q-20 22 -59 22h-26v19h256q95 0 149 -19t91 -65.5t37 -108.5q0 -86 -56.5 -140t-160.5 -54h-117v-43h302v-34h-302v-112q0 -66 14 -82q20 -23 60 -23h26v-19h-299v19h26q44 0 63 29q10 16 10 76v112h-100v34h100v43h-100v34zM234 347h84
q54 0 93.5 41.5t39.5 107.5q0 46 -18.5 85t-53 58.5t-78.5 19.5q-26 0 -67 -10v-302z" />
    <glyph glyph-name="l" unicode="l" horiz-adv-x="612" 
d="M65 358h77l53 183q20 71 20 95q0 19 -14.5 30.5t-64.5 14.5l5 19h276q109 0 162.5 -47t53.5 -113q0 -54 -34 -104t-101 -81t-146 -31h-128l-15 -52h336l-8 -36h-339l-25 -86q-19 -68 -19 -89q0 -17 14 -28t67 -14l-6 -19h-278l6 19q55 0 76.5 19t45.5 104l27 94h-70l9 36
h71l15 52h-75zM234 358h98q56 0 102.5 23.5t72.5 70t26 97.5t-32 81.5t-97 30.5q-35 0 -86 -9z" />
    <glyph glyph-name="m" unicode="m" horiz-adv-x="701" 
d="M52 357h98v220q0 57 -7 71.5t-24.5 23.5t-65.5 9v19h305q150 0 215.5 -53.5t65.5 -134.5q0 -68 -42 -116.5t-117 -66.5q-50 -12 -169 -12v-45h307v-40h-307v-109q0 -57 7 -71.5t25 -23.5t65 -9v-19h-355v19q48 0 65.5 9t24.5 23.5t7 71.5v109h-98v40h98v45h-98v40z
M311 660v-303h26q63 -1 97 36.5t34 116.5q0 77 -34 113.5t-102 36.5h-21z" />
    <glyph glyph-name="n" unicode="n" horiz-adv-x="584" 
d="M32 357h97l62 214q15 44 15 63t-17.5 32.5t-62.5 14.5l6 19h277q113 0 164 -29q78 -46 78 -136q0 -88 -77.5 -154.5t-208.5 -66.5h-96l-18 -61h307l-14 -43h-306l-24 -84q-13 -41 -13 -58q0 -24 16 -36t71 -13l-7 -19h-342l6 19q43 1 61 9t31 26q9 11 25 72l24 84h-98
l13 43h98l17 61h-98zM280 357h56q72 0 112.5 65t40.5 136q0 47 -26 74t-73 27q-9 0 -25 -1z" />
    <glyph glyph-name="o" unicode="o" horiz-adv-x="716" 
d="M191 354h61v346h190q82 0 127 -13.5t74 -47.5q37 -45 37 -122q0 -112 -76 -175.5t-211 -63.5h-43v-72h300v-75h-300v-131h-98v131h-61v75h61v71h-61v77zM350 354h39q89 0 138 40.5t49 115.5q0 62 -39 89t-127 27h-60v-272z" />
    <glyph glyph-name="p" unicode="p" horiz-adv-x="785" 
d="M200 340h66v360h190q63 0 106.5 -10.5t77.5 -33.5q40 -27 62 -66.5t22 -101.5q0 -46 -16.5 -86t-45.5 -69q-36 -36 -85.5 -54t-124.5 -18h-93v-66h325v-80h-325v-115h-93v115h-66v80h66v65h-66v80zM627 486q0 36 -13 63t-38 44q-23 14 -52 20.5t-73 6.5h-92v-280h78
q57 0 92 10.5t57 32.5q23 22 32 47t9 56z" />
    <glyph glyph-name="q" unicode="q" horiz-adv-x="631" 
d="M121 337h74l83 363h185q64 0 105.5 -11.5t68.5 -32.5q28 -21 42.5 -51.5t14.5 -72.5q0 -58 -25 -109t-70 -90q-43 -36 -96.5 -53.5t-129.5 -17.5h-102l-17 -72h355l-16 -76h-356l-26 -114h-94l26 114h-73l17 76h74l16 72h-73zM595 516q0 24 -8 44.5t-25 33.5
q-20 15 -47.5 22t-71.5 7h-88l-66 -286h83q57 0 94.5 11t64.5 33q32 27 48 60.5t16 74.5z" />
    <glyph glyph-name="r" unicode="r" horiz-adv-x="941" 
d="M190 361h89v341h298q67 0 113 -11.5t81 -34.5q43 -28 65.5 -71.5t22.5 -104.5q0 -47 -16.5 -92t-47.5 -75q-42 -42 -93.5 -63t-128.5 -21h-113v-43h362v-132h-362v-54h-181v54h-89v132h89v42h-89v133zM671 476q0 30 -16 51.5t-37 29.5q-28 12 -55 13t-72 1h-31v-210h52
q46 0 76 5.5t50 22.5q18 15 25.5 36t7.5 51z" />
    <glyph glyph-name="s" unicode="s" horiz-adv-x="806" 
d="M130 360h102l79 340h251q69 0 120 -9.5t88 -32.5q36 -23 55.5 -60t19.5 -92q0 -125 -103.5 -201.5t-289.5 -76.5h-69l-10 -43h377l-29 -132h-379l-12 -53h-181l12 53h-102l30 132h103l9 43h-102zM652 489q0 41 -29.5 60.5t-87.5 19.5h-73l-49 -209h65q83 0 128.5 33.5
t45.5 95.5z" />
    <glyph glyph-name="a" unicode="a" horiz-adv-x="856" 
d="M158 366h75v334h266q69 0 105 -6q52 -9 87 -33t55.5 -67t20.5 -95q0 -90 -56 -152.5t-204 -62.5h-182v-62h387v-80h-387v-142h-92v142h-75v80h75v62h-75v82zM325 368h183q89 0 127 33.5t38 94.5q0 44 -22.5 74.5t-58.5 40.5q-24 7 -86 7h-181v-250z" />
    <glyph glyph-name="b" unicode="b" horiz-adv-x="587" 
d="M125 363h63l58 337h239q62 0 92.5 -17t51.5 -59t21 -96q0 -72 -34 -135t-89 -85.5t-133 -23.5h-109h-34l-11 -61h332l-13 -80h-332l-25 -143h-77l25 143h-62l13 80h63l10 61h-62zM264 363h21h106q68 0 102.5 17t57.5 57t23 88q0 37 -12 59t-32.5 31t-73.5 9h-147z" />
    <glyph glyph-name="c" unicode="c" horiz-adv-x="861" 
d="M149 382h81v318h227q129 0 168 -10q61 -16 101.5 -69t40.5 -136q0 -65 -23.5 -109t-59.5 -69t-74 -33q-50 -10 -146 -10h-92v-60h365v-118h-365v-86h-142v86h-81v118h81v60h-81v118zM372 582v-199h77q84 0 112 11t44 34.5t16 54.5q0 38 -22.5 63t-56.5 31q-25 5 -102 5
h-68z" />
    <glyph glyph-name="d" unicode="d" horiz-adv-x="735" 
d="M152 383h88l67 317h285q75 0 119.5 -18t70 -59.5t25.5 -98.5q0 -53 -20.5 -103t-50.5 -80.5t-64 -46t-92 -23.5q-34 -5 -127 -5h-93l-14 -65h364l-25 -116h-363l-18 -85h-144l18 85h-95l27 116h92l14 65h-91zM384 383h44q115 0 153 14.5t60 46t22 68.5q0 26 -11 42
t-31.5 23.5t-90.5 7.5h-104z" />
  </font>
</defs>
</svg>
